<svg xmlns="http://www.w3.org/2000/svg" xmlns:xlink="http://www.w3.org/1999/xlink" width="688.818" height="628.386" viewBox="0 0 688.818 628.386"><defs><style>.a{fill:url(#a)}.b{fill:url(#b)}.c{fill:url(#c)}.d{fill:url(#d)}.e,.g,.h{fill:none}.e{stroke:#000;stroke-width:3px}.f{fill:#fff}.g,.h{stroke:#707070}.h{stroke-width:.5px}.i{filter:url(#i)}.j{filter:url(#g)}.k{filter:url(#e)}</style><linearGradient id="a" x2="1" y2="1" gradientUnits="objectBoundingBox"><stop offset="0" stop-color="#ff6c00"/><stop offset=".762" stop-color="#ffa74d"/><stop offset="1" stop-color="#fdbd72"/></linearGradient><linearGradient id="b" x2="1" y1=".555" y2=".446" gradientUnits="objectBoundingBox"><stop offset="0" stop-color="#0062ff" stop-opacity=".678"/><stop offset="1" stop-color="#003180"/></linearGradient><linearGradient id="c" x1="1" x2="0" y1="1" gradientUnits="objectBoundingBox"><stop offset="0" stop-color="#ff00ce"/><stop offset="1" stop-color="#80007b"/></linearGradient><linearGradient id="d" x1=".027" x2="1" y1=".012" y2="1" gradientUnits="objectBoundingBox"><stop offset="0" stop-color="#fff500"/><stop offset="1" stop-color="#b59302"/></linearGradient><filter id="e" width="115.84" height="95.162" x="456.489" y="229.612" filterUnits="userSpaceOnUse"><feOffset dy="3" input="SourceAlpha"/><feGaussianBlur result="f" stdDeviation="3"/><feFlood flood-opacity=".161"/><feComposite in2="f" operator="in"/><feComposite in="SourceGraphic"/></filter><filter id="g" width="109.698" height="94.105" x="114.825" y="187.141" filterUnits="userSpaceOnUse"><feOffset dy="3" input="SourceAlpha"/><feGaussianBlur result="h" stdDeviation="3"/><feFlood flood-opacity=".161"/><feComposite in2="h" operator="in"/><feComposite in="SourceGraphic"/></filter><filter id="i" width="109.698" height="94.105" x="114.825" y="254.141" filterUnits="userSpaceOnUse"><feOffset dy="3" input="SourceAlpha"/><feGaussianBlur result="j" stdDeviation="3"/><feFlood flood-opacity=".161"/><feComposite in2="j" operator="in"/><feComposite in="SourceGraphic"/></filter></defs><g><path d="M-16.726-65.736l104.6,83.049V232.566L-12.489,152.31Z" class="a" transform="translate(-1053.591 -269.307) translate(1189 477)"/><path d="M-36.2-69.507,178.674,96.166V299.152L-33.894,134.567Z" class="b" transform="translate(-1053.591 -269.307) translate(1326 353)"/><path d="M-45.092-122.438,168.833,45.413l4.084,211.88L-37.963,91.711Z" class="c" transform="translate(-1053.591 -269.307) translate(1334 625)"/><path d="M-15.321-41.062l101.565,74.2V237.963L-15.321,162.4Z" class="d" transform="translate(-1053.591 -269.307) translate(1534 500)"/><g transform="translate(-1053.591 -269.307) translate(-68 38)"><line x2="458" y2="349" class="e" transform="translate(1351.5 232.5)"/><line x2="458" y2="349" class="e" transform="translate(1236.5 365.5)"/><line x2="458" y2="349" class="e" transform="translate(1122.5 509.5)"/><line y1="452" class="e" transform="translate(1351.5 232.5)"/><line y1="451" class="e" transform="translate(1580.5 407.5)"/><line y1="222" class="e" transform="translate(1694.5 492.5)"/><line y2="231" class="e" transform="translate(1236.5 365.5)"/></g><g><g class="k" transform="translate(-1053.591 -269.307) translate(219 174) matrix(1, 0, 0, 1, 834.59, 95.31)"><rect width="96" height="31" class="f" rx="5" transform="matrix(0.85, 0.53, -0.53, 0.85, 481.92, 235.61)"/></g></g><path d="M1532.375,522.966c8.663-4.065,5,3.594,9.134,4.792s4.82-1.634,7.383,0,.666,4.9,2.87,6.536,3.434-1.2,5.949,0,.1,3.461,3.512,6.063,10.146,4.342,10.146,4.342" class="g" transform="translate(-1053.591 -269.307) translate(3 -4)"/><path d="M1530.481,526.277s5.135,3.9,8.636,5.2,4.027-1.692,5.37,0-1.62,5.077,0,6.769,4.278-.767,6.479,0,1.743,2.3,2.325,3.067" class="h" transform="translate(-1053.591 -269.307) translate(0 1)"/><g><g class="j"><path d="M4.358.4,79.314,7.3a5.671,5.671,0,0,1,4.759,5.151L85.758,32.4c.222,2.623-1.55,4.57-3.957,4.348l-74.956-6.9A5.671,5.671,0,0,1,2.086,24.7L.4,4.749C.18,2.126,1.951.18,4.358.4Z" class="f" transform="translate(-1053.591 -269.307) translate(-117 131) matrix(1, 0, 0, 1, 1170.59, 138.31) matrix(0.85, 0.53, -0.53, 0.85, 142.98, 192.61)"/></g><g class="i"><path d="M4.358.4,79.314,7.3a5.671,5.671,0,0,1,4.759,5.151L85.758,32.4c.222,2.623-1.55,4.57-3.957,4.348l-74.956-6.9A5.671,5.671,0,0,1,2.086,24.7L.4,4.749C.18,2.126,1.951.18,4.358.4Z" class="f" transform="translate(-1053.591 -269.307) translate(-117 131) matrix(1, 0, 0, 1, 1170.59, 138.31) matrix(0.85, 0.53, -0.53, 0.85, 142.98, 259.61)"/></g></g><g><path d="M1532.375,522.966c8.663-4.065,5,3.594,9.134,4.792s4.82-1.634,7.383,0,.666,4.9,2.87,6.536,3.434-1.2,5.949,0,.1,3.461,3.512,6.063,10.146,4.342,10.146,4.342" class="g" transform="translate(-1053.591 -269.307) translate(-339 -41) translate(3 -4)"/><path d="M1530.481,526.277s5.135,3.9,8.636,5.2,4.027-1.692,5.37,0-1.62,5.077,0,6.769,4.278-.767,6.479,0,1.743,2.3,2.325,3.067" class="h" transform="translate(-1053.591 -269.307) translate(-339 -41) translate(0 1)"/></g><g><path d="M1532.375,522.966c8.663-4.065,5,3.594,9.134,4.792s4.82-1.634,7.383,0,.666,4.9,2.87,6.536,3.434-1.2,5.949,0,.1,3.461,3.512,6.063,10.146,4.342,10.146,4.342" class="g" transform="translate(-1053.591 -269.307) translate(-339 25) translate(3 -4)"/><path d="M1530.481,526.277s5.135,3.9,8.636,5.2,4.027-1.692,5.37,0-1.62,5.077,0,6.769,4.278-.767,6.479,0,1.743,2.3,2.325,3.067" class="h" transform="translate(-1053.591 -269.307) translate(-339 25) translate(0 1)"/></g></g></svg>