<svg xmlns="http://www.w3.org/2000/svg" xmlns:xlink="http://www.w3.org/1999/xlink" width="688.818" height="628.386" viewBox="0 0 688.818 628.386">
  <defs>
    <style>.a{fill:url(#a);}.b{fill:url(#b);}.c{fill:url(#c);}.d{fill:url(#d);}.e,.g,.h{fill:none;}.e{stroke:#000;stroke-width:3px;}.f{fill:#fff;}.g,.h{stroke:#707070;}.h{stroke-width:0.5px;}.i{filter:url(#k);}.j{filter:url(#i);}.k{filter:url(#g);}.l{filter:url(#e);}</style>
    <linearGradient id="a" x2="1" y2="1" gradientUnits="objectBoundingBox">
      <stop offset="0" stop-color="#ff6c00" />
      <stop offset="0.762" stop-color="#ffa74d" />
      <stop offset="1" stop-color="#fdbd72" />
    </linearGradient>
    <linearGradient id="b" y1="0.555" x2="1" y2="0.446" gradientUnits="objectBoundingBox">
      <stop offset="0" stop-color="#0062ff" stop-opacity="0.678" />
      <stop offset="1" stop-color="#003180" />
    </linearGradient>
    <linearGradient id="c" x1="1" y1="1" x2="0" gradientUnits="objectBoundingBox">
      <stop offset="0" stop-color="#ff00ce" />
      <stop offset="1" stop-color="#80007b" />
    </linearGradient>
    <linearGradient id="d" x1="0.027" y1="0.012" x2="1" y2="1" gradientUnits="objectBoundingBox">
      <stop offset="0" stop-color="#fff500" />
      <stop offset="1" stop-color="#b59302" />
    </linearGradient>
    <filter id="e" x="236.825" y="276.141" width="109.698" height="94.105" filterUnits="userSpaceOnUse">
      <feOffset dy="3" input="SourceAlpha" />
      <feGaussianBlur stdDeviation="3" result="f" />
      <feFlood flood-opacity="0.161" />
      <feComposite operator="in" in2="f" />
      <feComposite in="SourceGraphic" />
    </filter>
    <filter id="g" x="236.825" y="343.141" width="109.698" height="94.105" filterUnits="userSpaceOnUse">
      <feOffset dy="3" input="SourceAlpha" />
      <feGaussianBlur stdDeviation="3" result="h" />
      <feFlood flood-opacity="0.161" />
      <feComposite operator="in" in2="h" />
      <feComposite in="SourceGraphic" />
    </filter>
    <filter id="i" x="335.825" y="353.141" width="109.698" height="94.105" filterUnits="userSpaceOnUse">
      <feOffset dy="3" input="SourceAlpha" />
      <feGaussianBlur stdDeviation="3" result="j" />
      <feFlood flood-opacity="0.161" />
      <feComposite operator="in" in2="j" />
      <feComposite in="SourceGraphic" />
    </filter>
    <filter id="k" x="335.825" y="420.141" width="109.698" height="94.105" filterUnits="userSpaceOnUse">
      <feOffset dy="3" input="SourceAlpha" />
      <feGaussianBlur stdDeviation="3" result="l" />
      <feFlood flood-opacity="0.161" />
      <feComposite operator="in" in2="l" />
      <feComposite in="SourceGraphic" />
    </filter>
  </defs>
  <g transform="translate(-1053.591 -269.307)">
    <path class="a" d="M-16.726-65.736l104.6,83.049V232.566L-12.489,152.31Z" transform="translate(1189 477)" />
    <path class="b" d="M-36.2-69.507,178.674,96.166V299.152L-33.894,134.567Z" transform="translate(1326 353)" />
    <path class="c" d="M-45.092-122.438,168.833,45.413l4.084,211.88L-37.963,91.711Z" transform="translate(1334 625)" />
    <path class="d" d="M-15.321-41.062l101.565,74.2V237.963L-15.321,162.4Z" transform="translate(1534 500)" />
    <g transform="translate(-68 38)">
      <line class="e" x2="458" y2="349" transform="translate(1351.5 232.5)" />
      <line class="e" x2="458" y2="349" transform="translate(1236.5 365.5)" />
      <line class="e" x2="458" y2="349" transform="translate(1122.5 509.5)" />
      <line class="e" y1="452" transform="translate(1351.5 232.5)" />
      <line class="e" y1="451" transform="translate(1580.5 407.5)" />
      <line class="e" y1="222" transform="translate(1694.5 492.5)" />
      <line class="e" y2="231" transform="translate(1236.5 365.5)" />
    </g>
    <g transform="translate(122 89)">
      <g transform="translate(-117 131)">
        <g class="l" transform="matrix(1, 0, 0, 1, 1048.59, 49.31)">
          <path class="f" d="M4.358.4,79.314,7.3a5.671,5.671,0,0,1,4.759,5.151L85.758,32.4c.222,2.623-1.55,4.57-3.957,4.348l-74.956-6.9A5.671,5.671,0,0,1,2.086,24.7L.4,4.749C.18,2.126,1.951.18,4.358.4Z" transform="matrix(0.85, 0.53, -0.53, 0.85, 264.98, 281.61)" />
        </g>
        <g class="k" transform="matrix(1, 0, 0, 1, 1048.59, 49.31)">
          <path class="f" d="M4.358.4,79.314,7.3a5.671,5.671,0,0,1,4.759,5.151L85.758,32.4c.222,2.623-1.55,4.57-3.957,4.348l-74.956-6.9A5.671,5.671,0,0,1,2.086,24.7L.4,4.749C.18,2.126,1.951.18,4.358.4Z" transform="matrix(0.85, 0.53, -0.53, 0.85, 264.98, 348.61)" />
        </g>
      </g>
      <g transform="translate(-339 -41)">
        <path class="g" d="M1532.375,522.966c8.663-4.065,5,3.594,9.134,4.792s4.82-1.634,7.383,0,.666,4.9,2.87,6.536,3.434-1.2,5.949,0,.1,3.461,3.512,6.063,10.146,4.342,10.146,4.342" transform="translate(3 -4)" />
        <path class="h" d="M1530.481,526.277s5.135,3.9,8.636,5.2,4.027-1.692,5.37,0-1.62,5.077,0,6.769,4.278-.767,6.479,0,1.743,2.3,2.325,3.067" transform="translate(0 1)" />
      </g>
      <g transform="translate(-339 25)">
        <path class="g" d="M1532.375,522.966c8.663-4.065,5,3.594,9.134,4.792s4.82-1.634,7.383,0,.666,4.9,2.87,6.536,3.434-1.2,5.949,0,.1,3.461,3.512,6.063,10.146,4.342,10.146,4.342" transform="translate(3 -4)" />
        <path class="h" d="M1530.481,526.277s5.135,3.9,8.636,5.2,4.027-1.692,5.37,0-1.62,5.077,0,6.769,4.278-.767,6.479,0,1.743,2.3,2.325,3.067" transform="translate(0 1)" />
      </g>
    </g>
    <g transform="translate(221 166)">
      <g transform="translate(-117 131)">
        <g class="j" transform="matrix(1, 0, 0, 1, 949.59, -27.69)">
          <path class="f" d="M4.358.4,79.314,7.3a5.671,5.671,0,0,1,4.759,5.151L85.758,32.4c.222,2.623-1.55,4.57-3.957,4.348l-74.956-6.9A5.671,5.671,0,0,1,2.086,24.7L.4,4.749C.18,2.126,1.951.18,4.358.4Z" transform="matrix(0.85, 0.53, -0.53, 0.85, 363.98, 358.61)" />
        </g>
        <g class="i" transform="matrix(1, 0, 0, 1, 949.59, -27.69)">
          <path class="f" d="M4.358.4,79.314,7.3a5.671,5.671,0,0,1,4.759,5.151L85.758,32.4c.222,2.623-1.55,4.57-3.957,4.348l-74.956-6.9A5.671,5.671,0,0,1,2.086,24.7L.4,4.749C.18,2.126,1.951.18,4.358.4Z" transform="matrix(0.85, 0.53, -0.53, 0.85, 363.98, 425.61)" />
        </g>
      </g>
      <g transform="translate(-339 -41)">
        <path class="g" d="M1532.375,522.966c8.663-4.065,5,3.594,9.134,4.792s4.82-1.634,7.383,0,.666,4.9,2.87,6.536,3.434-1.2,5.949,0,.1,3.461,3.512,6.063,10.146,4.342,10.146,4.342" transform="translate(3 -4)" />
        <path class="h" d="M1530.481,526.277s5.135,3.9,8.636,5.2,4.027-1.692,5.37,0-1.62,5.077,0,6.769,4.278-.767,6.479,0,1.743,2.3,2.325,3.067" transform="translate(0 1)" />
      </g>
      <g transform="translate(-339 25)">
        <path class="g" d="M1532.375,522.966c8.663-4.065,5,3.594,9.134,4.792s4.82-1.634,7.383,0,.666,4.9,2.87,6.536,3.434-1.2,5.949,0,.1,3.461,3.512,6.063,10.146,4.342,10.146,4.342" transform="translate(3 -4)" />
        <path class="h" d="M1530.481,526.277s5.135,3.9,8.636,5.2,4.027-1.692,5.37,0-1.62,5.077,0,6.769,4.278-.767,6.479,0,1.743,2.3,2.325,3.067" transform="translate(0 1)" />
      </g>
    </g>
  </g>
</svg>
