<svg xmlns="http://www.w3.org/2000/svg" width="250" height="245" viewBox="0 0 250 245"><defs><style>.a{fill:rgba(216,0,181,0.4);}</style></defs><g transform="translate(-77 -314)"><circle class="a" cx="10" cy="10" r="10" transform="translate(77 314)"/><circle class="a" cx="10" cy="10" r="10" transform="translate(123 314)"/><circle class="a" cx="10" cy="10" r="10" transform="translate(169 314)"/><circle class="a" cx="10" cy="10" r="10" transform="translate(215 314)"/><circle class="a" cx="10" cy="10" r="10" transform="translate(261 314)"/><circle class="a" cx="10" cy="10" r="10" transform="translate(307 314)"/><circle class="a" cx="10" cy="10" r="10" transform="translate(77 359)"/><circle class="a" cx="10" cy="10" r="10" transform="translate(123 359)"/><circle class="a" cx="10" cy="10" r="10" transform="translate(169 359)"/><circle class="a" cx="10" cy="10" r="10" transform="translate(215 359)"/><circle class="a" cx="10" cy="10" r="10" transform="translate(261 359)"/><circle class="a" cx="10" cy="10" r="10" transform="translate(307 359)"/><circle class="a" cx="10" cy="10" r="10" transform="translate(77 404)"/><circle class="a" cx="10" cy="10" r="10" transform="translate(123 404)"/><circle class="a" cx="10" cy="10" r="10" transform="translate(169 404)"/><circle class="a" cx="10" cy="10" r="10" transform="translate(215 404)"/><circle class="a" cx="10" cy="10" r="10" transform="translate(261 404)"/><circle class="a" cx="10" cy="10" r="10" transform="translate(307 404)"/><circle class="a" cx="10" cy="10" r="10" transform="translate(77 449)"/><circle class="a" cx="10" cy="10" r="10" transform="translate(123 449)"/><circle class="a" cx="10" cy="10" r="10" transform="translate(169 449)"/><circle class="a" cx="10" cy="10" r="10" transform="translate(215 449)"/><circle class="a" cx="10" cy="10" r="10" transform="translate(261 449)"/><circle class="a" cx="10" cy="10" r="10" transform="translate(307 449)"/><circle class="a" cx="10" cy="10" r="10" transform="translate(77 494)"/><circle class="a" cx="10" cy="10" r="10" transform="translate(123 494)"/><circle class="a" cx="10" cy="10" r="10" transform="translate(169 494)"/><circle class="a" cx="10" cy="10" r="10" transform="translate(215 494)"/><circle class="a" cx="10" cy="10" r="10" transform="translate(261 494)"/><circle class="a" cx="10" cy="10" r="10" transform="translate(307 494)"/><circle class="a" cx="10" cy="10" r="10" transform="translate(77 539)"/><circle class="a" cx="10" cy="10" r="10" transform="translate(123 539)"/><circle class="a" cx="10" cy="10" r="10" transform="translate(169 539)"/><circle class="a" cx="10" cy="10" r="10" transform="translate(215 539)"/><circle class="a" cx="10" cy="10" r="10" transform="translate(261 539)"/><circle class="a" cx="10" cy="10" r="10" transform="translate(307 539)"/></g></svg>
